PathFileType	4	(X/Y/Z)	D:\TRACE\v60_Jaco2_6-2-23\BothDRS_Motion2_6-platform.trc
DataRate	CameraRate	NumFrames	NumMarkers	Units	OrigDataRate	OrigDataStartFrame	OrigNumFrames
100.00	100.00	      48	5	mm	100.00	5626	      7500
Frame#	Time	Left_Front			Right_Front			Left_Aft			Right_Aft			Post			
		X1	Y1	Z1	X2	Y2	Z2	X3	Y3	Z3	X4	Y4	Z4	X5	Y5	Z5	

5626	56.250	-811.19049	33.24642	-632.65179	758.68500	33.85929	-637.80817	-719.26642	-8.50139	501.58124	722.64307	-10.39961	511.34195	-25.12092	1342.57410	-908.18512	
5627	56.260	-812.64911	31.65399	-632.83307	757.50641	32.38065	-638.22272	-720.56390	-7.72275	501.36438	721.37219	-9.56574	511.31500	-26.04442	1340.76404	-911.37543	
5628	56.270	-813.72864	30.51270	-633.25696	756.45215	31.13545	-638.52454	-721.65881	-6.63448	501.03387	720.52460	-8.46754	510.78418	-26.84758	1338.76892	-914.56702	
5629	56.280	-814.70313	29.42994	-633.64203	755.36115	29.76713	-638.85504	-722.61407	-5.87429	500.82718	719.27466	-7.49406	510.53479	-27.96870	1336.73621	-917.70526	
5630	56.290	-815.64728	27.70255	-634.01495	754.11890	28.19890	-639.30243	-723.77820	-4.67995	500.54590	718.20294	-6.53568	510.12222	-29.57886	1334.91309	-921.06512	
5631	56.300	-817.15204	26.35748	-634.18311	753.04156	27.11530	-639.58533	-724.79425	-3.95926	500.34738	717.28363	-5.49082	509.83206	-30.70095	1332.88086	-923.99084	
5632	56.310	-818.42749	24.99885	-634.59863	752.07452	25.59171	-640.12463	-725.97449	-3.19628	500.08517	716.01324	-4.63550	509.61002	-31.58664	1330.81311	-927.41064	
5633	56.320	-819.26910	23.25058	-634.99860	750.63568	24.13890	-640.49536	-726.58624	-2.84789	500.21649	714.86810	-3.55050	509.36221	-32.67480	1328.75195	-930.53223	
5634	56.330	-820.26025	22.30330	-635.24164	749.69537	22.78458	-640.67725	-728.19769	-1.14592	499.37204	713.75403	-2.25676	509.12912	-33.75860	1326.88843	-933.63495	
5635	56.340	-821.31720	20.91847	-635.75165	748.74561	21.52785	-640.98340	-729.29773	-0.15224	499.09653	712.63647	-1.24843	508.86053	-34.66649	1324.91663	-936.61658	
5636	56.350	-822.76056	19.25774	-635.91461	747.51282	20.17290	-641.52283	-730.44714	0.88980	499.05386	711.64130	-0.30082	508.47125	-36.10300	1322.85327	-939.65399	
5637	56.360	-823.71826	17.89909	-636.34833	746.65662	18.77572	-641.77612	-731.55750	1.82176	498.48431	710.46838	0.59563	508.10156	-37.40466	1320.90808	-942.46527	
5638	56.370	-824.63513	16.45634	-636.88568	745.51355	17.36793	-642.04474	-732.70074	3.18560	497.97324	709.63861	1.61075	507.79837	-38.25892	1318.88013	-945.22876	
5639	56.380	-825.49316	14.90933	-636.89563	744.39392	15.79524	-642.31738	-733.64978	3.82811	497.84708	708.52094	2.70347	507.40530	-39.47684	1316.66370	-948.52448	
5640	56.390	-826.92041	13.77127	-637.46643	743.28632	14.39895	-642.94910	-734.71637	4.81922	497.54407	707.78973	3.77765	507.01456	-40.36070	1314.58289	-951.42938	
5641	56.400	-828.06213	12.41512	-637.71210	742.32910	13.25476	-643.03809	-735.54742	5.74688	497.26535	706.31744	4.97461	506.90530	-41.61920	1312.60718	-954.63293	
5642	56.410	-829.03674	10.80976	-638.09277	741.44458	11.59958	-643.34515	-736.56329	6.64983	496.90567	705.10321	5.81322	506.61243	-42.42805	1310.59192	-957.88043	
5643	56.420	-829.64923	9.60067	-638.27466	740.18335	10.32500	-643.84985	-737.82928	7.88806	496.62949	704.24640	6.83127	506.13690	-43.51978	1308.44055	-961.27429	
5644	56.430	-830.88318	8.10176	-638.89972	739.39392	8.79591	-643.93549	-739.20508	9.26586	496.44922	703.17450	7.86201	505.80472	-44.90702	1306.27734	-964.68335	
5645	56.440	-832.12256	6.41718	-639.14703	738.16608	7.26940	-644.40887	-739.97021	9.85654	496.04010	702.37543	8.85697	505.48447	-45.88052	1304.26245	-967.57654	
5646	56.450	-833.01855	5.30503	-639.45868	737.09949	5.95883	-644.99329	-740.73938	10.81568	495.65826	701.40100	10.04814	505.28192	-46.67471	1302.15063	-970.55762	
5647	56.460	-833.95105	3.76693	-639.73828	736.38129	4.84017	-645.15485	-741.73059	11.88252	495.25427	700.46313	11.05028	504.62628	-47.72678	1300.05347	-973.86359	
5648	56.470	-834.79883	2.55589	-640.09094	735.45313	3.29654	-645.33295	-742.53882	12.46917	494.94995	699.44220	11.98564	504.55017	-48.41932	1298.22180	-976.83069	
5649	56.480	-835.67371	1.02231	-640.57159	734.20355	1.89987	-645.86725	-743.32635	13.46475	494.50745	698.13977	12.99149	504.15598	-49.12953	1295.84753	-979.84583	
5650	56.490	-836.87927	-0.46976	-640.79810	733.30463	0.83725	-646.11127	-744.13800	14.10945	494.24286	697.58057	13.95089	503.75510	-50.31523	1293.69482	-982.47742	
5651	56.500	-837.69800	-1.55286	-641.02747	732.47717	-0.25448	-646.57410	-745.52075	15.68399	493.87344	696.72858	14.96542	503.22690	-51.21634	1291.27148	-985.26074	
5652	56.510	-838.56622	-3.17540	-641.38831	731.82629	-2.65609	-646.81555	-746.10004	16.65135	493.54413	695.82568	15.94279	502.76196	-52.69168	1289.27405	-988.54987	
5653	56.520	-839.29907	-5.07199	-641.83008	730.83350	-4.05794	-647.07379	-747.12238	17.67646	493.21609	695.12616	17.22595	502.40485	-53.66979	1287.10327	-991.58942	
5654	56.530	-840.25726	-6.68999	-642.02783	729.97638	-5.10889	-647.38312	-748.63757	19.00159	492.88663	694.29010	18.40079	501.79004	-54.00004	1284.68530	-994.67987	
5655	56.540	-840.91187	-7.90146	-642.41174	729.13641	-6.55963	-647.76282	-749.05634	19.54849	492.50241	693.05365	19.10489	501.71442	-55.12853	1282.65930	-998.06952	
5656	56.550	-841.57111	-9.32054	-642.58954	728.23578	-8.02105	-648.06171	-749.59033	20.59102	492.09128	692.44812	20.18500	501.41821	-55.31018	1280.28418	-1001.86041	
5657	56.560	-842.68762	-10.30092	-642.77942	727.52075	-9.26183	-648.27057	-750.55042	21.40410	491.75854	691.80585	21.09395	501.11511	-56.61800	1278.50574	-1005.19562	
5658	56.570	-843.52344	-11.48550	-643.04694	726.73468	-10.34686	-648.70874	-751.37689	22.42847	491.61139	690.93524	21.97707	500.77176	-57.12697	1276.39282	-1008.90784	
5659	56.580	-844.27954	-13.26449	-643.19849	726.12396	-11.68319	-648.74139	-751.98572	23.15860	491.23422	690.20685	22.85474	500.37338	-57.79408	1274.45276	-1011.92114	
5660	56.590	-844.82886	-14.46904	-643.75287	725.41864	-13.21537	-649.07556	-752.78162	23.97326	491.03140	689.71136	23.68270	500.08789	-58.59230	1272.66992	-1014.77380	
5661	56.600	-845.46729	-15.53961	-644.02734	724.57098	-14.10819	-649.43439	-753.55011	24.81677	490.58804	688.82892	24.40547	499.78006	-59.17962	1270.56970	-1017.85669	
5662	56.610	-846.01544	-16.59292	-644.23999	723.90912	-15.64320	-649.64331	-754.06976	25.57365	490.41388	687.99011	25.25477	499.39505	-59.93408	1269.05627	-1020.66321	
5663	56.620	-846.62555	-17.87747	-644.14240	723.43359	-16.47017	-649.62408	-754.43152	26.49017	490.08051	687.61517	26.28989	499.10031	-60.36627	1267.04529	-1023.26788	
5664	56.630	-847.22919	-19.10196	-644.66364	722.69934	-17.67771	-650.04254	-755.14581	27.36221	489.68991	687.22778	27.08670	499.00241	-61.06765	1265.33215	-1026.11194	
5665	56.640	-847.91772	-20.42410	-644.82318	722.22723	-19.07748	-650.32056	-755.70874	28.05299	489.35043	686.38873	27.87399	498.64767	-61.35238	1262.93884	-1028.53748	
5666	56.650	-848.53906	-22.22110	-645.04803	721.66876	-20.52374	-650.60944	-756.31311	28.79747	488.87509	685.80499	28.65985	498.30011	-62.04704	1261.12183	-1030.88928	
5667	56.660	-848.87085	-22.85154	-645.35254	721.26190	-21.77438	-650.97845	-756.75995	29.52344	488.39999	685.04376	29.33255	497.52332	-62.30848	1259.00769	-1032.81738	
5668	56.670	-848.84290	-25.03395	-645.61810	720.79254	-22.91338	-651.10797	-757.06085	30.56302	488.26712	684.67273	30.24656	497.10611	-63.03685	1257.12134	-1034.83008	
5669	56.680	-849.49573	-25.77836	-645.82452	720.34607	-24.20040	-651.34003	-757.38678	31.50844	487.94241	684.10895	30.92178	496.35410	-63.44073	1255.23083	-1036.72070	
5670	56.690	-850.03510	-26.98568	-645.95868	720.05170	-25.09089	-651.55255	-757.80121	32.23687	487.64020	683.49402	31.37536	495.79169	-63.93173	1253.48792	-1039.17078	
5671	56.700	-850.43536	-27.96051	-646.33429	719.69550	-26.52048	-651.70166	-758.23273	32.84764	487.33063	683.92902	33.07721	496.16595	-64.29879	1251.40234	-1040.61633	
5672	56.710	-850.68298	-29.15317	-646.38635	719.46680	-27.68377	-651.88226	-758.56775	33.55566	487.00323	683.49231	33.68929	495.86469	-64.64619	1249.95325	-1042.41089	
5673	56.720	-850.79541	-30.20288	-646.71692	719.10223	-28.77179	-652.15491	-758.67560	34.22212	486.69327	682.97284	34.28603	495.47308	-64.94295	1248.20874	-1044.45471	
